<svg viewBox="0 0 1200 1200" focusable="false" class="">
  <g fill="#e5daf8">
    <path
      d="M758.44 407.81c-56.25-104.06-186.56-142.5-290.62-86.25s-142.5 186.56-86.25 290.62c49.688 91.875 156.56 132.19 252.19 102.19l38.438 114.38c1.875 4.688 4.688 9.375 7.5 14.062 19.688 28.125 59.062 33.75 86.25 14.062 28.125-19.688 33.75-59.062 14.062-86.25l-75-95.625c79.688-63.75 103.12-176.25 53.438-267.19zm-79.688 227.81c-8.437 7.5-18.75 14.062-29.062 19.688s-21.562 10.312-32.812 13.125c-74.062 21.562-154.69-10.312-193.12-80.625-44.062-80.625-14.062-181.88 66.562-225.94s181.88-14.062 225.94 66.562c38.438 72.188 20.625 157.5-37.5 207.19z">
    </path>
    <path
      d="M1175.6 591.56l-106.88-120.94c-11.25-13.125-31.875-12.188-42.188 1.875l-94.688 131.25c-13.125 17.812.937 44.062 22.5 42.188l66.562-2.813c-6.563 242.81-205.31 439.69-450 439.69-58.125 0-116.25-11.25-169.69-33.75 1.875-8.437 2.812-15.938 3.75-24.375 3.75-76.875-55.312-142.5-131.25-146.25-37.5-1.875-73.125 10.312-100.31 35.625-27.188 24.375-44.062 59.062-45.938 95.625-3.75 76.875 55.312 142.5 131.25 146.25h7.5c34.688 0 67.5-12.188 92.812-35.625 4.687-3.75 8.437-7.5 12.188-12.188 62.812 26.25 131.25 40.312 200.62 40.312 282.19 0 511.88-227.81 516.56-509.06l69.375-2.812c21.562-.938 32.812-28.125 17.812-45zm-861.56 479.06c-14.062 13.125-32.812 19.688-52.5 18.75-40.312-1.875-71.25-36.562-68.438-75.938.937-19.688 9.375-37.5 24.375-50.625 13.125-12.188 30.938-18.75 48.75-18.75h3.75c40.312 1.875 71.25 36.562 68.438 75.938-1.875 19.688-10.312 37.5-24.375 50.625z">
    </path>
    <path
      d="M840.94 225c6.563 6.563 15 9.375 23.438 9.375s16.875-2.813 23.438-9.375l37.5-37.5 39.375 39.375c6.563 6.563 15 9.375 23.438 9.375s16.875-2.813 23.438-9.375c13.125-13.125 13.125-33.75 0-46.875l-39.375-39.375 39.375-39.375c13.125-13.125 13.125-33.75 0-46.875s-33.75-13.125-46.875 0L925.317 93.75l-37.5-37.5c-13.125-13.125-33.75-13.125-46.875 0s-13.125 33.75 0 46.875l37.5 37.5-37.5 37.5c-13.125 13.125-13.125 33.75 0 46.875z">
    </path>
    <path
      d="M151.88 569.06c6.563 6.563 15 9.375 23.438 9.375s16.875-2.813 23.438-9.375c13.125-13.125 13.125-33.75 0-46.875l-39.375-39.375 39.375-39.375c13.125-13.125 13.125-33.75 0-46.875s-33.75-13.125-46.875 0l-39.375 39.375-37.5-37.5c-13.125-13.125-33.75-13.125-46.875 0s-13.125 33.75 0 46.875l37.5 37.5-37.5 37.5c-13.125 13.125-13.125 33.75 0 46.875 6.562 6.563 15 9.375 23.438 9.375s16.875-2.813 23.438-9.375l37.5-37.5z">
    </path>
  </g>
</svg>